
<svg width="107px" height="95px" viewBox="0 0 107 95" version="1.1" xmlns="http://www.w3.org/2000/svg" xmlns:xlink="http://www.w3.org/1999/xlink">
    <!-- Generator: Sketch 54.1 (76490) - https://sketchapp.com -->
    <title>Combined Shape</title>
    <desc>Created with Sketch.</desc>
    <g id="Onboarding" stroke="none" stroke-width="1" fill="none" fill-rule="evenodd">
        <g id="iPhone-8-Plus-Copy-7" transform="translate(-154.000000, -491.000000)" fill="#FFFFFF" fill-rule="nonzero">
            <path d="M164.982391,553.604473 C163.103088,553.752461 161.166117,553.57981 159.171419,553.086516 C154.736925,552.034153 153.154379,548.692131 154.423732,543.060349 C155.693086,537.428567 160.432483,533.790572 168.642066,532.146256 L168.765704,532.146256 C170.925253,531.80095 173.191921,531.866722 175.565777,532.343573 C180.016756,533.280833 181.689969,536.581748 180.585467,542.246417 C179.480964,547.911085 174.848719,551.688845 166.688591,553.579808 C166.078642,553.612694 165.509914,553.620916 164.982391,553.604473 Z M166.317677,549.288165 C166.564954,549.288165 166.828712,549.279943 167.108959,549.2635 C170.884048,548.194695 173.02708,546.053005 173.538118,542.838368 C174.049157,539.62373 173.274368,537.753348 171.21373,537.227167 C170.125713,536.947633 169.078924,536.906526 168.073333,537.103844 L168.023878,537.103844 C164.215818,538.041104 162.01921,540.108801 161.433989,543.306995 C160.848768,546.50519 161.578223,548.400236 163.622376,548.992189 C164.562027,549.271723 165.460452,549.37038 166.317677,549.288165 Z M189.654869,546.909403 C188.78859,549.573633 188.14611,551.34496 187.727408,552.223435 C186.976633,553.058707 186.139243,553.598746 185.215212,553.843567 C184.796511,553.973178 184.500537,554.037983 184.327281,554.037983 C183.287746,554.037983 182.623609,553.317932 182.334849,551.877807 C182.190469,550.941726 182.118281,550.401688 182.118281,550.257675 C182.132719,548.817551 183.035079,545.793335 184.825388,541.184938 C186.615698,536.57654 188.319354,532.65226 189.936409,529.41198 C190.788249,527.842245 192.123743,525.854903 193.942928,523.449895 C194.881397,522.571419 195.495002,522.132188 195.783762,522.132188 C196.274653,522.232997 196.520095,522.463413 196.520095,522.823444 L196.520095,523.946736 C196.505657,525.905305 195.531108,529.289546 193.596419,534.099561 C193.553104,534.171568 193.379851,534.661202 193.076654,535.568481 L192.340321,537.966276 C194.101754,536.295732 195.682689,535.01404 197.083173,534.121163 C198.18046,533.458706 199.703644,532.731454 201.652772,531.939386 C202.519051,531.737768 203.031592,531.687365 203.190409,531.788173 C203.421417,532.032995 203.46473,532.263411 203.320351,532.47943 L202.865556,533.170686 C202.085905,534.365989 200.208996,536.079711 197.234772,538.311904 C197.17702,538.340706 196.888265,538.571123 196.368497,539.00316 L193.141624,542.308229 C193.069435,542.365834 193.004465,542.430638 192.946713,542.502645 C193.711926,543.36672 194.592629,544.381992 195.58885,545.548493 C199.458229,550.214495 202.605662,553.454726 205.031243,555.269283 L205.421066,556.068548 C205.53657,556.327771 205.449944,556.59419 205.161184,556.867813 C204.959052,556.983023 204.388761,556.903818 203.450292,556.630194 C201.096901,555.996539 199.118927,555.118076 197.516311,553.994779 C195.913695,552.871482 193.769687,551.035352 191.084222,548.486332 C190.564455,547.924683 190.088009,547.399045 189.654869,546.909403 Z M212.063621,535.771955 L212.211986,535.771955 C212.788965,535.771955 213.151632,536.380343 213.299998,537.597137 C213.398909,538.139761 213.448363,538.550833 213.448363,538.830367 C213.448363,541.329728 212.030665,545.185591 209.195227,550.398073 L207.884667,553.530479 C207.934123,553.859342 207.95885,554.122428 207.95885,554.319747 L207.95885,554.39374 C207.95885,554.985694 207.472547,555.281666 206.499925,555.281666 C205.065721,555.281666 204.159054,553.744254 203.779896,550.669383 C203.779896,548.383784 204.975049,545.391174 207.365389,541.691463 C209.871126,538.517933 211.214641,536.618777 211.395978,535.993937 C211.577314,535.845948 211.79986,535.771955 212.063621,535.771955 Z M222.066559,548.41492 C221.147838,551.240437 220.466463,553.118995 220.022414,554.050652 C219.226189,554.936489 218.338105,555.509221 217.358135,555.768862 C216.914087,555.90632 216.600195,555.975048 216.416451,555.975048 C215.313985,555.975048 214.609642,555.211406 214.303402,553.6841 C214.150281,552.691351 214.073723,552.11862 214.073723,551.965889 C214.089034,550.438583 215.046022,547.231288 216.944713,542.343908 C218.843404,537.456528 220.650196,533.294682 222.365142,529.858243 C223.268552,528.193479 224.684893,526.085828 226.614208,523.535227 C227.609489,522.60357 228.260241,522.137748 228.566481,522.137748 C229.08709,522.24466 229.34739,522.489025 229.34739,522.870852 L229.34739,524.062144 C229.332078,526.139281 228.298532,529.728397 226.246721,534.829599 C226.200785,534.905965 226.017044,535.425241 225.695491,536.387444 L224.914581,538.930396 C226.782649,537.158721 228.45929,535.799439 229.944556,534.852509 C231.10827,534.149948 232.723665,533.37867 234.790788,532.538651 C235.709509,532.324829 236.253078,532.271374 236.42151,532.378285 C236.666503,532.637927 236.712438,532.882293 236.559318,533.111389 L236.076991,533.844492 C235.250142,535.112156 233.259609,536.929623 230.105332,539.296948 C230.044084,539.327494 229.737848,539.571859 229.186615,540.030051 L225.764395,543.535201 C225.687835,543.596293 225.618932,543.665021 225.557683,543.741386 C226.369221,544.65777 227.30324,545.734505 228.35977,546.971623 C232.463392,551.920095 235.801363,555.356483 238.373784,557.280888 L238.787206,558.128539 C238.909702,558.403454 238.817832,558.686002 238.511591,558.97619 C238.297223,559.098374 237.692407,559.014374 236.697125,558.724185 C234.201265,558.05217 232.10355,557.120528 230.403915,555.929229 C228.70428,554.73793 226.430479,552.790644 223.582442,550.087312 C223.031209,549.491663 222.52592,548.934204 222.066559,548.41492 Z M237.582263,543.072681 C238.851617,537.432678 243.591014,533.790572 251.800598,532.146256 C256.202121,532.080484 258.613032,532.672429 259.033402,533.922109 C259.453772,535.171789 259.453772,536.495443 259.033402,537.893112 C258.613032,539.290781 257.512668,540.844636 255.732276,542.554724 C253.951884,544.264813 250.498306,545.54736 245.371438,546.402405 C245.437378,548.77022 247.44441,549.378608 251.392593,548.227586 C255.340776,547.076565 257.945384,546.36952 259.206495,546.106429 C260.467606,545.843339 260.991,546.225636 260.776693,547.253334 C260.562387,548.281031 258.538871,549.777337 254.706083,551.742294 C250.873296,553.707252 246.743838,554.159432 242.317587,553.098848 C237.891336,552.038264 236.31291,548.696242 237.582263,543.072681 Z M249.674029,536.906527 C247.415569,537.975333 245.874235,539.800496 245.04998,542.382072 L245.371438,543.196005 C251.883055,540.828189 254.796754,538.916701 254.112622,537.461481 C253.42849,536.006262 251.948974,535.821279 249.674029,536.906527 Z M218.418598,522.403733 L219.160424,522.403733 C219.457156,522.568165 219.60552,522.790144 219.60552,523.069678 L219.60552,523.143671 C219.556065,523.817841 217.841639,526.374714 214.462192,530.814367 C213.687392,531.784513 213.052725,532.269579 212.558172,532.269579 C212.558172,532.368238 212.195505,532.417567 211.47016,532.417567 C210.398628,532.236692 209.86287,531.776291 209.86287,531.036348 L209.86287,529.852447 C209.86287,528.93163 210.744811,527.468211 212.508717,525.462145 C214.091287,524.376897 215.698561,523.505422 217.330587,522.847696 C217.676774,522.81481 218.039441,522.666823 218.418598,522.403733 Z M253.086619,527.633245 L253.654891,528.108868 C253.776237,528.42508 253.74684,528.69025 253.566701,528.904385 L253.519018,528.961068 C253.046679,529.445803 250.085634,530.305274 244.635793,531.539507 C243.417073,531.785917 242.6183,531.750581 242.239451,531.433498 C242.175872,531.509075 241.866264,531.314338 241.310618,530.849282 C240.606338,530.023709 240.492619,529.327519 240.969458,528.76069 L241.732396,527.853769 C242.325796,527.148382 243.944469,526.592795 246.588463,526.186992 C248.500146,526.370312 250.292991,526.73323 251.967052,527.275759 C252.25344,527.472526 252.626625,527.591686 253.086619,527.633245 Z M211.414994,497.463702 C211.381977,496.956492 211.438906,496.377066 211.58578,495.725425 C212.124626,493.33471 214.136519,491.790367 217.621521,491.092348 L217.674006,491.092348 C218.590743,490.945764 219.552953,490.973685 220.560664,491.17611 C222.450123,491.57398 223.160409,492.975232 222.691543,495.379907 C222.393566,496.908144 221.490741,498.11286 219.983051,498.994068 C223.861016,499.963845 227.514336,501.264942 230.615163,502.775987 C246.351182,510.497291 248.141965,520.041927 248.141965,520.041927 C248.141965,520.041927 248.488106,520.93271 247.92983,521.542969 C247.533262,521.972836 247.005958,521.972681 246.36706,521.884193 C238.369405,520.415289 225.710834,518.449764 209.972949,517.040009 C198.926797,516.042423 181.040941,515.526556 175.002,515.39041 C174.289953,515.371005 173.781948,515.186577 173.59736,514.641365 C173.412772,514.096152 173.909571,513.128834 174.117504,512.821764 C174.117504,512.821764 181.318752,500.181585 199.532693,497.564807 C203.255327,497.017358 207.329797,497.02575 211.414994,497.463702 Z M214.938392,497.945842 C215.647167,498.063565 216.35328,498.193254 217.05492,498.334237 C218.60515,497.872739 219.486807,496.971733 219.699915,495.631193 C219.916853,494.266566 219.587952,493.472581 218.713203,493.249216 C218.251335,493.130552 217.806969,493.113102 217.380091,493.196865 L217.359098,493.196865 C215.742561,493.594735 214.810092,494.472481 214.561663,495.830127 C214.376199,496.843673 214.501774,497.548908 214.938392,497.945842 Z M198.280337,499.185341 C189.497305,499.762174 181.498748,505.840537 180.007676,509.064672 C179.423247,510.342994 181.118322,511.193722 181.810113,509.836707 C185.631751,504.320786 192.591026,500.336201 198.280337,499.185341 Z M166.85227,564.953698 C167.302191,564.528505 167.653269,564.508827 168.501371,564.473414 C188.307661,563.375436 221.239878,565.080966 240.645847,567.368864 C241.489921,567.479122 242.097259,567.699612 242.329663,568.274431 C242.617223,568.967363 242.230206,569.758706 241.910429,570.231147 C240.370723,572.565796 228.326673,588.742954 200.385141,585.612321 C182.067733,583.572485 168.603373,572.406622 166.728956,566.772624 C166.728956,566.772624 166.204965,565.650545 166.85227,564.953698 Z M210.842944,581.77201 C217.826347,581.600869 225.375541,579.124828 231.141957,573.452029 C232.799882,571.818187 230.47059,569.795845 228.847262,571.873706 C225.155454,576.063937 219.181079,580.36686 210.842944,581.77201 Z M236.824201,517.514359 C240.49946,517.904775 242.41426,518.469743 242.99889,516.956995 C243.979382,514.448815 237.845792,508.90225 231.019524,507.042408 C237.593996,509.949984 240.68399,514.001024 240.033789,515.782891 C239.643118,516.942943 238.26761,517.582721 236.824201,517.514359 Z M249.298873,564.132803 C249.984382,564.132803 250.612756,564.299753 251.184013,564.633656 C251.75527,564.96756 252.206741,565.420708 252.538439,565.993115 C252.870137,566.565521 253.035984,567.189288 253.035984,567.864434 C253.035984,568.532242 252.870137,569.154174 252.538439,569.73025 C252.206741,570.306326 251.753428,570.764978 251.178485,571.10622 C250.603542,571.447462 249.96964,571.618081 249.27676,571.618081 C248.591251,571.618081 247.962877,571.449297 247.39162,571.111724 C246.820362,570.774151 246.370734,570.319168 246.042722,569.746761 C245.714709,569.174355 245.550706,568.554257 245.550706,567.88645 C245.550706,567.218642 245.716552,566.59671 246.04825,566.020634 C246.379948,565.444558 246.831419,564.985906 247.402676,564.644664 C247.973934,564.303422 248.605993,564.132803 249.298873,564.132803 Z M249.27676,570.792499 C249.822219,570.792499 250.321601,570.660407 250.774921,570.396219 C251.228241,570.132032 251.585733,569.776118 251.847405,569.328467 C252.109078,568.880815 252.239913,568.392809 252.239913,567.864434 C252.239913,567.336059 252.110921,566.849888 251.852934,566.405906 C251.594946,565.961924 251.241141,565.609679 250.791506,565.349161 C250.341871,565.088642 249.844332,564.958385 249.298873,564.958385 C248.753414,564.958385 248.255875,565.090477 247.80624,565.354665 C247.356605,565.618852 247.000957,565.974766 246.739284,566.422418 C246.477611,566.870069 246.346777,567.358075 246.346777,567.88645 C246.346777,568.414825 246.475768,568.900996 246.733756,569.344978 C246.991743,569.78896 247.343706,570.141205 247.789655,570.401723 C248.235604,570.662242 248.731301,570.792499 249.27676,570.792499 Z M250.879958,567.203969 C250.879958,567.482833 250.820991,567.719498 250.703053,567.913969 C250.585116,568.108441 250.415585,568.257044 250.194453,568.359784 L250.979467,569.548622 L250.061774,569.548622 L249.486834,568.513892 L248.66865,568.513892 L248.66865,569.548622 L247.872579,569.548622 L247.872579,565.971099 L249.398382,565.971099 C249.87013,565.971099 250.234992,566.079341 250.492979,566.295828 C250.750966,566.512315 250.879958,566.815026 250.879958,567.203969 Z M248.66865,567.875442 L249.398382,567.875442 C249.626885,567.875442 249.803788,567.820404 249.929096,567.710326 C250.054404,567.600247 250.117057,567.442471 250.117057,567.236992 C250.117057,567.031513 250.054404,566.875571 249.929096,566.769162 C249.803788,566.662753 249.626885,566.609549 249.398382,566.609549 L248.66865,566.609549 L248.66865,567.875442 Z" id="Combined-Shape"></path>
        </g>
    </g>
</svg>
